<svg width="1920" height="230" viewBox="0 0 1920 230" fill="none" xmlns="http://www.w3.org/2000/svg">
<g clip-path="url(#clip0_2662_32514)">
<path d="M131.977 332.56H0.5V0.5H144.75V98.07V98.57H145.25C200.727 98.57 246.054 55.191 249.193 0.5H380.67V332.56H236.42V234.99V234.49H235.92C180.443 234.49 135.116 277.869 131.977 332.56ZM649.705 267.369L649.574 266.843L649.06 267.016L567.481 294.476C562.331 296.206 558.303 300.275 556.634 305.446L547.856 332.56H400.3L461.857 68.7436C471.184 28.7799 506.822 0.5 547.86 0.5H736.033L813.52 332.56H665.99L649.705 267.369ZM612.955 93.5388L612.861 93.1607L612.471 93.16L600.421 93.14H600.41H600.028L599.927 93.5089L572.968 192.699L572.702 193.675L573.639 193.293L631.539 169.693L631.94 169.529L631.835 169.109L612.955 93.5388ZM1088.71 332.56H833.14V0.5H1073.45C1121.82 0.5 1161.04 39.7161 1161.04 88.09C1161.04 119.361 1144.63 146.794 1119.97 162.287L1120.16 162.584L1120.05 163.177C1152.94 175.795 1176.3 207.644 1176.3 244.97C1176.3 293.344 1137.08 332.56 1088.71 332.56ZM968.29 81.02H967.79V81.52V125.52V126.02H968.29H1001.24C1008.87 126.02 1016.24 124.498 1021.71 120.902C1027.21 117.286 1030.76 111.595 1030.76 103.38C1030.76 95.1635 1027.21 89.5409 1021.71 85.9959C1016.23 82.4701 1008.87 81.02 1001.24 81.02H968.29ZM967.79 245.49V245.99H968.29H1003.58C1011.93 245.99 1019.99 244.323 1025.97 240.39C1031.98 236.439 1035.86 230.22 1035.86 221.24C1035.86 212.259 1031.98 206.116 1025.97 202.242C1019.99 198.388 1011.94 196.8 1003.58 196.8H968.29H967.79V197.3V245.49ZM1357.9 94.8293L1358.34 95.6901L1358.78 94.8294L1407.48 0.5H1572.3L1448.64 222.527L1449.08 222.77L1448.64 222.527C1444.46 230.041 1442.27 238.485 1442.27 247.08V332.56H1274.43V247.08C1274.43 238.485 1272.24 230.031 1268.06 222.527L1144.4 0.5H1309.22L1357.9 94.8293ZM1658.35 148.05H1585.82V0.5H1919.5V148.05H1846.97C1842.09 148.05 1838.14 152.004 1838.14 156.88V332.56H1667.18V156.88C1667.18 152.004 1663.23 148.05 1658.35 148.05Z" stroke="black"/>
</g>
<defs>
<clipPath id="clip0_2662_32514">
<rect width="1920" height="230" fill="white"/>
</clipPath>
</defs>
</svg>
