<svg width="120" height="22" viewBox="0 0 120 22" fill="none" xmlns="http://www.w3.org/2000/svg">
<g clip-path="url(#clip0_653_8878)">
<path d="M15.545 0.591797C15.3644 4.00742 12.5387 6.72117 9.07812 6.72117V0.591797H0V21.408H8.27812C8.45874 17.9924 11.2844 15.2787 14.745 15.2787V21.408H23.8231V0.591797H15.545Z" fill="#272220"/>
<path d="M35.4776 19.0262L40.5763 17.3099L41.6001 21.408H50.8845L46.027 0.591797H34.2414C31.662 0.591797 29.422 2.3693 28.8357 4.88117L24.9795 21.408H34.2639L34.8195 19.6918C34.9207 19.378 35.1651 19.1312 35.4776 19.0262ZM37.5264 6.44429L38.2795 6.44554L39.4595 11.1687L35.8407 12.6437L37.5257 6.44429H37.5264Z" fill="#272220"/>
<path d="M70.015 10.7612C71.565 9.78741 72.5963 8.06304 72.5963 6.09742C72.5963 3.05679 70.1313 0.591797 67.0906 0.591797H52.04V21.408H68.0444C71.085 21.408 73.55 18.943 73.55 15.9024C73.55 13.5562 72.0819 11.5543 70.0144 10.7612H70.015ZM60.5182 5.68679H62.5775C63.525 5.68679 64.3913 6.04742 64.3913 7.05304C64.3913 8.05866 63.525 8.43679 62.5775 8.43679H60.5182V5.68679ZM62.7238 15.9349H60.5182V12.923H62.7238C63.7619 12.923 64.71 13.318 64.71 14.4193C64.71 15.5205 63.7613 15.9349 62.7238 15.9349Z" fill="#272220"/>
<path d="M98.3217 0.591797H87.9485L84.896 6.50429L81.8448 0.591797H71.4717L79.226 14.5149C79.4848 14.9793 79.6204 15.5024 79.6204 16.0343V21.408H90.1729V16.0343C90.1729 15.5024 90.3085 14.9799 90.5673 14.5149L98.3217 0.591797Z" fill="#272220"/>
<path d="M99.082 9.87616H103.646C103.934 9.87616 104.167 10.1093 104.167 10.3968V21.408H114.915V10.3968C114.915 10.1093 115.148 9.87616 115.435 9.87616H120V0.591797H99.082V9.87616Z" fill="#272220"/>
</g>
<defs>
<clipPath id="clip0_653_8878">
<rect width="120" height="20.8162" fill="white" transform="translate(0 0.591797)"/>
</clipPath>
</defs>
</svg>
