<svg width="1059" height="725px" viewBox="0 0 1059 682" fill="none" xmlns="http://www.w3.org/2000/svg">
<g clip-path="url(#clip0_22_378)">
<rect width="1059" height="725px" fill="#30303A"/>
<rect width="2156" height="807" transform="translate(369 -124)" fill="#30303A"/>
<path fill-rule="evenodd" clip-rule="evenodd" d="M800.144 70.5386C789.006 87.4388 792.349 73.3593 781.203 90.2595L762.261 129.693C760.035 135.327 760.035 140.96 757.801 145.653C753.341 160.673 743.32 155.04 741.086 167.247C737.743 182.266 743.312 208.561 738.86 225.461C733.291 243.302 726.604 245.182 738.86 270.528C741.086 275.221 743.32 278.042 744.429 284.616C746.655 291.189 746.655 295.883 751.115 298.703C756.684 296.823 755.575 292.13 761.144 288.377C765.596 284.624 770.056 285.556 774.517 283.684C775.634 268.664 771.173 259.27 780.086 248.003C784.546 241.429 794.567 234.855 794.567 223.589C783.429 216.075 780.086 212.322 782.312 188.848C784.538 164.434 814.617 160.681 823.53 138.147C832.442 114.674 835.785 119.367 849.157 118.427C850.274 105.279 848.04 93.0722 843.588 81.8054C838.019 67.7179 843.588 64.9052 833.559 63.0247C814.617 61.1442 822.42 70.5386 800.136 70.5386H800.144Z" fill="#4B4C54"/>
<path fill-rule="evenodd" clip-rule="evenodd" d="M851.391 358.798C858.077 378.519 843.596 381.332 836.91 396.36C840.253 403.873 840.253 404.806 840.253 414.2C882.588 417.953 872.559 403.873 888.157 406.686C901.529 409.507 909.325 427.347 913.777 439.546C918.237 437.666 919.346 432.973 926.032 432.973C931.601 432.032 934.944 435.793 939.404 437.666C943.864 440.487 949.433 440.487 949.433 446.12C949.433 451.753 944.973 453.634 946.09 461.14C952.776 462.08 958.345 458.319 962.805 456.446C962.805 447.06 956.119 439.546 968.375 435.785C971.718 434.845 976.17 434.845 979.513 433.905C983.973 432.024 986.199 431.084 989.542 429.212C991.768 406.678 1009.59 426.391 1007.37 401.045C1006.25 384.144 990.651 388.838 979.513 382.264C941.638 360.671 955.002 357.85 946.09 347.523C942.747 343.77 936.061 340.009 930.492 339.069C928.266 341.89 927.149 344.703 924.923 347.523C916.011 361.611 912.668 365.364 897.069 364.424C875.902 363.483 864.764 350.336 851.391 358.79V358.798Z" fill="#4B4C54"/>
<path fill-rule="evenodd" clip-rule="evenodd" d="M845.822 75.2316C848.048 82.7454 851.391 84.6179 852.508 94.9525C852.508 104.339 853.625 111.853 853.625 121.247C858.086 124.06 866.998 128.761 864.764 136.267C860.312 151.286 844.713 155.988 838.027 164.434C834.684 169.127 827.998 175.701 826.889 183.214C826.889 187.908 828.006 206.688 828.006 211.381C829.123 218.895 838.035 222.648 843.604 223.588C849.173 224.529 858.086 219.836 863.655 218.895C871.458 217.955 882.596 218.895 890.391 218.895C892.617 213.262 897.077 204.808 901.529 201.055C919.354 179.462 927.157 185.095 916.011 168.195C904.872 151.295 911.559 130.633 908.216 116.554C904.872 106.227 902.646 103.407 903.755 91.1996C905.981 75.2396 901.529 81.8133 898.186 71.4787C893.726 63.0245 899.303 53.6382 900.412 46.1243C894.843 47.0646 889.274 48.0048 882.588 48.9451C862.538 50.8255 882.588 62.0923 861.421 69.5982C856.96 70.5384 849.165 73.3511 845.822 75.2316Z" fill="#4B4C54"/>
<path fill-rule="evenodd" clip-rule="evenodd" d="M844.713 36.7382C839.144 33.9175 841.37 32.9853 838.027 31.1048C831.341 35.798 826.889 46.1245 814.633 43.3119C806.838 41.4314 807.947 41.4314 800.152 45.1923C796.809 47.0728 791.24 48.013 787.897 49.8855C787.897 55.5189 789.014 54.5787 789.014 61.1523C780.102 65.8455 767.847 56.4591 764.504 67.7259C771.19 68.6662 772.299 67.7259 776.759 72.4191C778.985 78.9927 767.846 79.933 756.708 100.586C751.139 112.793 743.336 119.367 737.767 130.634C734.424 135.327 732.198 142.841 728.855 146.594C725.512 151.287 719.943 152.227 715.482 156.92C697.658 178.513 663.118 181.334 665.352 202.928L673.147 233.915C674.265 236.736 674.265 240.489 675.374 244.242C677.6 252.688 680.943 253.628 688.746 255.509C696.541 257.389 698.775 252.688 703.227 247.995C718.826 231.095 718.825 230.154 728.855 244.242C729.972 232.975 734.424 227.342 735.541 216.075C737.767 196.354 729.972 163.494 743.336 155.04C762.277 142.833 746.679 148.466 764.504 114.666C768.964 107.152 776.759 82.7376 787.897 76.172C801.261 68.6581 791.24 64.9052 805.721 65.8455C811.29 66.7857 824.663 52.6982 839.144 60.2121C844.713 62.0925 842.487 65.8454 845.83 69.5984C850.29 67.7179 861.428 64.9052 864.771 63.0247C871.458 58.3316 864.772 48.9372 874.801 45.1843C888.173 39.5509 913.793 46.1246 914.91 31.0968C914.91 26.4036 912.684 27.3439 908.223 26.4036C902.654 25.4634 901.537 24.5232 897.085 23.5829C887.056 19.83 882.604 32.9692 870.349 34.8497C863.663 36.7302 864.779 33.9095 862.553 31.0968C855.867 23.5829 852.524 35.7899 844.729 36.7302L844.713 36.7382Z" fill="#4B4C54"/>
<path fill-rule="evenodd" clip-rule="evenodd" d="M571.762 410.439L565.076 411.379C563.959 420.766 581.791 418.893 587.361 427.339C591.813 432.973 588.478 433.913 594.047 435.793C604.076 439.546 604.076 442.367 601.842 454.574C599.616 463.028 599.616 474.295 597.39 480.869C602.959 483.689 610.762 489.323 617.44 490.255C626.353 493.076 634.156 491.195 643.068 494.948C656.44 461.148 665.352 491.195 683.177 478.988C682.06 474.295 680.951 465.841 679.834 459.267C679.834 448.941 676.49 448.941 675.381 441.427C672.038 427.339 686.52 421.706 688.754 409.499C688.754 401.985 685.411 396.352 680.959 395.411C675.389 393.531 672.046 399.164 663.134 392.591C655.339 386.957 647.536 375.69 638.624 372.87C626.368 383.196 645.31 380.384 609.661 397.284C605.201 399.164 604.092 398.224 599.632 399.164C595.172 400.104 597.406 402.917 594.063 406.678C589.603 411.371 579.582 410.431 571.778 410.431L571.762 410.439Z" fill="#88888E"/>
<path fill-rule="evenodd" clip-rule="evenodd" d="M687.629 332.504C690.972 364.432 679.834 362.551 679.834 381.332C679.834 389.786 683.177 389.786 687.629 394.479C695.424 401.993 694.315 413.26 687.629 422.646C679.834 433.913 675.373 432.973 683.169 448.941C698.767 434.853 704.336 441.427 716.591 431.1C722.16 426.407 725.504 423.586 731.073 418.893C735.533 414.2 739.985 412.32 745.554 406.686C744.437 398.232 736.642 393.539 739.985 385.093C743.328 371.005 763.378 375.706 754.466 350.352C750.014 340.026 747.78 338.145 753.349 327.819C746.663 324.998 742.211 321.245 733.299 325.938C725.504 329.691 721.043 331.571 716.583 323.117C703.211 300.584 713.24 301.524 716.583 279.923C717.7 267.716 706.554 278.042 703.211 280.863C683.161 294.01 704.328 297.763 703.211 320.297C702.094 333.444 698.759 332.504 687.613 332.504H687.629Z" fill="#88888E"/>
<path fill-rule="evenodd" clip-rule="evenodd" d="M540.566 569.123C547.252 569.123 550.595 573.816 557.273 572.875C561.733 571.935 560.616 570.055 573.989 568.182C586.244 566.302 584.018 563.489 589.587 561.609C599.616 558.788 597.382 561.609 602.959 553.155C608.528 546.581 607.419 544.7 609.645 536.254C610.762 529.681 614.098 525.928 617.441 521.235C627.47 502.454 637.491 509.968 640.834 498.701C630.805 496.821 618.55 496.82 609.637 493.068C586.244 481.801 604.068 484.613 579.558 484.613C567.302 484.613 548.361 484.613 537.223 480.861C530.537 478.98 524.968 475.227 521.625 483.681C521.625 485.562 520.508 493.068 520.508 494.948C520.508 497.769 517.164 499.641 528.303 499.641C534.989 499.641 558.382 494.948 542.784 523.115C534.989 536.262 539.441 553.163 540.558 569.123H540.566Z" fill="#88888E"/>
<path fill-rule="evenodd" clip-rule="evenodd" d="M833.567 392.599C836.91 388.846 850.282 371.945 849.165 365.372C846.939 359.738 842.479 357.858 843.596 349.412C843.596 340.958 846.939 340.026 846.939 329.691C833.567 318.424 826.889 317.484 810.173 317.484C805.713 317.484 803.487 322.177 797.918 319.364C792.349 316.552 793.458 309.978 774.525 322.185C770.065 324.066 767.838 325.938 763.386 327.818C750.014 332.512 754.474 337.205 758.926 348.472C763.386 362.559 757.809 366.312 782.32 377.579C797.918 384.152 783.437 384.152 805.713 386.965C815.742 388.846 823.538 389.778 833.567 392.599Z" fill="#4B4C54"/>
<path fill-rule="evenodd" clip-rule="evenodd" d="M858.078 419.825C827.998 419.825 835.793 417.005 829.115 429.212C826.889 432.024 825.772 434.845 823.546 438.598C817.977 447.052 825.772 453.618 830.232 458.319C844.713 477.1 835.801 490.247 839.144 520.286C868.107 502.446 863.655 512.772 875.91 510.9C880.362 510.9 885.939 509.96 890.391 509.02C884.822 493.06 881.479 501.506 892.617 473.339C893.734 467.705 895.96 465.825 894.843 462.072C890.383 450.805 891.5 447.052 890.383 434.845C888.157 424.519 882.588 419.825 879.245 414.192C870.333 417.945 869.216 419.825 858.078 419.825Z" fill="#4B4C54"/>
<path fill-rule="evenodd" clip-rule="evenodd" d="M687.629 475.227C694.315 468.654 704.336 462.08 714.365 472.407C721.052 479.921 719.935 487.426 731.081 497.761C737.767 503.394 747.796 508.088 755.591 513.721C766.73 522.175 766.729 535.314 773.416 539.075C775.642 517.482 781.211 527.808 784.554 518.414C747.788 501.514 752.248 493.06 746.679 482.733C742.219 476.16 736.65 472.407 736.65 460.2C735.533 442.359 748.905 445.18 758.934 458.319C763.394 463.953 766.73 470.526 772.307 475.219C772.307 464.893 771.19 461.132 777.876 456.439C784.562 452.686 789.014 453.618 793.474 447.985C785.679 443.291 776.759 441.411 773.424 432.965C762.285 438.598 763.395 437.658 750.03 435.786C740.001 433.905 734.432 432.033 725.52 429.212C713.265 445.172 690.98 442.359 685.411 455.498C683.185 459.251 685.411 471.458 687.637 475.219L687.629 475.227Z" fill="#88888E"/>
<path fill-rule="evenodd" clip-rule="evenodd" d="M848.056 353.165C854.742 354.105 860.311 349.412 869.224 351.284C874.793 353.165 879.253 356.917 887.048 357.858C891.5 358.798 902.646 360.67 907.098 358.798C913.785 356.917 916.011 352.224 920.471 346.591C933.843 327.81 926.04 329.691 919.354 311.85C912.668 294.95 922.697 295.89 891.5 289.317C887.048 296.831 885.931 298.703 880.362 304.336C868.107 316.543 878.136 307.157 865.881 316.543C862.537 320.296 853.625 326.87 852.508 330.631C851.391 333.444 846.939 350.352 848.056 353.165Z" fill="#4B4C54"/>
<path fill-rule="evenodd" clip-rule="evenodd" d="M776.751 478.98C778.977 481.801 787.889 486.494 796.801 494.94C807.939 505.267 803.487 509.028 807.939 521.235C820.194 548.462 831.333 540.956 832.45 551.282C833.567 556.916 830.224 561.609 830.224 567.242C834.684 567.242 836.91 564.421 839.136 560.669C842.479 555.975 844.705 556.916 848.048 552.214C846.931 550.334 835.793 538.127 834.676 530.621C833.559 525.928 834.676 525.928 835.793 521.235C815.743 518.414 819.077 509.968 810.165 494.94C805.705 489.307 802.37 486.486 801.253 477.1C800.136 466.773 800.136 462.08 796.801 452.686C793.458 453.626 793.458 455.506 790.115 456.439C776.743 463.012 775.634 458.319 776.743 478.972L776.751 478.98Z" fill="#4B4C54"/>
<path fill-rule="evenodd" clip-rule="evenodd" d="M800.144 447.06C801.261 453.634 804.596 457.386 804.596 468.653C805.713 478.04 805.713 481.801 811.283 488.374C823.538 505.274 820.195 515.601 834.676 515.601V485.553C834.676 467.713 829.107 465.833 822.421 456.446C815.735 447.06 819.078 446.12 814.626 444.239C809.056 440.486 803.487 444.239 800.144 447.06Z" fill="#4B4C54"/>
<path fill-rule="evenodd" clip-rule="evenodd" d="M824.655 288.377C825.772 302.464 825.772 303.397 820.195 313.731C834.676 313.731 841.362 318.424 850.274 325.938C854.726 320.305 859.186 315.612 865.873 310.919C872.559 306.225 877.011 302.473 880.354 295.899C875.902 294.959 871.442 294.018 868.099 292.146C843.588 279.939 850.274 287.453 824.647 288.393L824.655 288.377Z" fill="#4B4C54"/>
<path fill-rule="evenodd" clip-rule="evenodd" d="M536.114 568.182C536.114 556.916 532.771 542.828 534.997 531.561C537.223 520.295 546.135 515.601 541.683 504.335H519.398C519.398 510.908 520.515 518.422 520.515 525.928C519.398 534.382 514.946 536.255 517.172 542.828C524.967 560.669 512.72 569.123 536.114 568.182Z" fill="#88888E"/>
<path fill-rule="evenodd" clip-rule="evenodd" d="M823.546 283.684C833.575 282.744 846.939 278.991 856.968 281.803C864.764 283.684 877.019 293.07 884.822 291.19C889.274 284.616 885.939 264.895 879.253 263.023C878.136 262.082 877.027 262.082 875.91 262.082H852.516C853.633 266.776 853.633 271.469 849.173 273.349C844.713 275.23 841.378 270.528 839.144 268.656C831.349 263.023 823.546 276.17 823.546 283.676V283.684Z" fill="#4B4C54"/>
<path fill-rule="evenodd" clip-rule="evenodd" d="M750.014 402.925C744.445 416.073 753.357 406.678 735.533 420.766C735.533 420.766 734.416 421.706 733.307 422.646L729.963 426.399C737.759 428.28 746.679 430.152 755.591 431.092C767.846 432.973 770.072 428.28 775.641 421.706C790.123 406.686 776.759 399.172 764.503 401.985C758.934 402.925 755.591 402.925 750.022 402.925H750.014Z" fill="#88888E"/>
<path fill-rule="evenodd" clip-rule="evenodd" d="M784.554 417.953C782.328 423.587 777.868 425.467 776.759 429.22C778.985 435.794 790.131 441.427 795.7 444.24C802.386 440.487 801.269 434.853 817.985 439.547C821.328 432.973 828.014 425.459 829.123 417.013C802.386 406.686 802.386 427.34 784.562 417.953H784.554Z" fill="#4B4C54"/>
<path fill-rule="evenodd" clip-rule="evenodd" d="M747.788 398.232C756.7 399.172 760.043 397.292 767.839 396.351C776.751 395.411 780.094 400.104 784.554 402.925C786.78 401.045 791.24 395.411 791.24 392.598C790.123 382.272 773.416 383.212 761.16 368.184C751.131 379.451 760.043 370.065 747.788 381.332C742.219 386.965 742.219 390.718 747.788 398.232Z" fill="#4B4C54"/>
<path fill-rule="evenodd" clip-rule="evenodd" d="M835.801 414.192C838.027 402.925 833.575 396.352 823.546 395.411C815.751 393.531 804.604 391.658 795.692 390.718C794.575 394.471 795.692 396.352 793.466 400.105C791.24 402.917 789.006 402.917 787.897 406.678C782.328 416.064 794.583 416.064 799.035 413.252C826.889 402.925 826.889 415.132 835.801 414.192Z" fill="#4B4C54"/>
<path fill-rule="evenodd" clip-rule="evenodd" d="M850.282 258.33C861.42 255.509 870.332 256.449 881.479 257.389C880.362 248.003 882.596 243.302 883.705 234.856C874.793 234.856 864.763 234.856 856.968 237.676C844.713 242.37 846.939 248.003 850.282 258.338V258.33Z" fill="#4B4C54"/>
<path fill-rule="evenodd" clip-rule="evenodd" d="M645.294 370.065C648.637 373.818 655.323 378.52 658.666 382.272C663.126 386.966 667.578 391.659 676.491 390.727C676.491 386.033 675.374 385.093 675.374 380.4C675.374 376.647 677.6 371.946 676.491 370.073C672.039 364.44 662.009 365.38 656.44 357.866C650.871 367.253 649.754 366.321 645.302 370.073L645.294 370.065Z" fill="#88888E"/>
<path fill-rule="evenodd" clip-rule="evenodd" d="M658.658 353.165C663.118 359.739 669.796 362.551 679.826 364.432C682.052 352.225 685.395 352.225 684.286 334.384C673.148 334.384 660.892 343.771 658.658 353.165Z" fill="#88888E"/>
<path fill-rule="evenodd" clip-rule="evenodd" d="M898.186 458.327C902.638 453.634 907.098 448 911.559 444.239C909.333 438.606 904.872 428.279 901.529 423.586C898.186 417.953 892.617 411.379 883.705 411.379C884.822 416.072 887.048 416.072 889.274 420.766C891.5 423.586 892.617 427.339 893.734 431.092C894.851 437.666 894.851 445.18 895.96 451.753L898.186 458.327Z" fill="#4B4C54"/>
<path fill-rule="evenodd" clip-rule="evenodd" d="M572.871 258.329C579.558 262.082 588.47 261.15 590.696 269.596C592.922 280.863 584.01 283.684 582.901 291.19C597.382 298.703 594.039 294.01 602.951 309.03C604.068 311.843 606.294 314.663 607.403 316.544C611.855 323.118 611.855 328.751 615.198 334.384C619.658 341.898 625.228 338.137 629.68 343.771C631.906 355.037 622.993 353.157 620.767 365.364C619.658 387.898 601.826 371.938 581.776 380.384C575.089 383.196 563.951 386.957 559.491 379.444C557.265 368.177 569.52 366.296 573.972 361.603C565.802 359.101 561.717 352.841 561.717 342.822C561.717 331.556 572.855 334.376 578.425 328.743C578.425 324.05 575.081 316.536 572.855 314.663C568.403 309.97 565.06 313.723 560.6 306.209C556.148 296.823 557.257 302.456 550.571 297.755C538.316 290.241 548.345 274.281 550.571 266.768C552.797 258.313 560.6 247.987 569.512 247.047C578.424 245.166 573.964 253.62 572.855 258.313L572.871 258.329ZM531.654 304.337C520.515 307.15 524.967 311.851 518.281 318.416C511.595 324.99 508.252 324.99 511.595 336.257C513.821 345.643 503.8 348.464 507.143 356.91C512.712 368.177 531.654 355.97 534.997 354.097C538.34 353.157 542.792 352.217 545.026 350.344C551.712 344.711 547.252 335.325 550.595 327.811C552.821 321.237 560.624 318.424 551.712 309.03C547.252 302.456 540.574 302.456 531.654 304.337ZM369 126.873C370.117 116.546 386.825 108.092 395.737 114.666C402.423 120.299 400.189 124.992 409.109 119.359C414.678 114.666 416.904 114.666 424.707 113.725C450.335 111.845 450.335 97.7655 471.502 122.18C474.846 125.932 479.298 130.634 477.072 137.207C473.728 146.594 459.247 153.167 450.335 155.048C439.197 158.809 429.168 167.255 418.029 166.315C412.46 166.315 406.891 163.502 400.205 161.621C376.812 155.048 392.41 143.781 382.381 135.327C376.811 131.574 374.577 133.446 369.008 126.881L369 126.873Z" fill="#4B4C54"/>
<path fill-rule="evenodd" clip-rule="evenodd" d="M1393.81 5.87675C1399.38 8.69748 1414.98 14.3309 1409.41 23.7172C1403.84 29.3506 1393.81 21.8367 1387.13 20.9045C1373.75 20.9045 1374.87 16.2113 1372.65 4.94455C1368.19 5.8848 1363.73 11.5182 1361.51 15.2711C1363.73 22.785 1370.42 23.7252 1367.08 34.992C1358.16 75.3661 1384.9 39.6852 1400.5 62.2188C1402.73 66.9119 1403.84 73.4856 1406.07 79.119C1408.29 84.7524 1412.75 89.4455 1410.53 96.0192C1400.5 100.712 1393.81 93.2065 1391.59 83.8121C1391.59 79.119 1390.47 73.4856 1387.13 71.6051C1382.67 68.7844 1377.11 71.6051 1374.88 73.4856C1371.54 78.1788 1379.33 82.8719 1367.08 96.0192C1352.6 110.107 1343.69 123.246 1329.21 120.433C1321.41 119.493 1309.16 115.74 1312.5 106.346C1320.3 98.8319 1328.1 111.979 1341.46 93.1985C1343.69 89.4456 1347.03 83.8122 1349.26 79.111C1352.6 70.6568 1350.38 70.6568 1347.03 64.0912C1340.35 49.0715 1349.26 35.9242 1343.69 26.5299C1340.35 20.8965 1340.35 15.2631 1342.57 8.68944C1345.92 1.17556 1347.03 -0.696877 1345.92 -10.0912C1340.35 -16.6649 1320.29 -14.7844 1315.84 -8.21075C1312.49 -4.45783 1311.39 1.17556 1308.04 5.87675C1304.7 10.5699 1301.36 13.3906 1298.01 18.0838C1293.55 23.7172 1294.67 26.5379 1293.55 34.984C1292.44 44.3703 1294.67 45.3106 1300.24 50.0037C1305.81 55.6371 1316.95 69.7246 1308.03 79.111C1298 81.9236 1292.44 70.6568 1285.75 66.9039C1282.41 64.0912 1277.95 63.151 1274.61 61.2705C1269.04 59.39 1267.93 57.5176 1263.47 54.6969C1252.34 47.183 1234.51 51.8761 1221.14 46.2428C1216.68 44.3623 1214.45 40.6094 1210 39.6691C1212.23 49.9957 1224.48 53.7566 1226.71 61.2625C1227.82 67.8361 1224.48 72.5293 1218.91 72.5293C1212.23 72.5293 1208.88 67.8361 1203.31 68.7764C1198.86 69.7166 1198.86 74.4098 1189.94 74.4098C1165.43 71.5891 1158.75 94.1307 1154.29 68.7764C1149.84 68.7764 1143.15 70.6568 1137.59 70.6568C1129.79 71.5971 1128.67 71.5971 1124.21 77.2305C1115.3 89.4375 1109.73 86.6168 1101.93 94.1307C1098.59 96.9514 1096.36 100.704 1090.79 102.585C1085.22 104.465 1079.65 103.525 1075.19 101.645C1055.14 94.1307 1074.08 79.111 1075.19 79.111C1071.85 74.4178 1064.05 70.6568 1058.48 74.4178C1054.02 80.0512 1055.13 90.3777 1058.48 96.9514C1062.94 104.465 1064.05 111.039 1056.25 115.732C1047.34 119.485 1046.22 111.039 1035.08 117.613C1028.4 121.365 1022.83 122.306 1017.26 126.999C1017.26 132.632 1028.4 152.353 1008.35 147.66C1002.78 146.72 983.836 140.146 981.61 139.206C984.953 148.6 996.092 148.6 992.749 157.987C980.493 162.68 957.1 150.473 954.874 139.206C952.648 126.999 960.443 124.186 950.422 113.852C944.853 109.158 935.941 106.338 937.05 96.9514C943.736 93.1985 949.305 98.8319 955.991 102.585C966.02 108.218 993.866 111.039 1005.01 107.278C1008.36 106.338 1010.58 104.457 1013.92 102.585C1016.15 101.645 1017.27 101.645 1018.38 99.7641C1021.73 97.8836 1021.73 98.8238 1022.84 95.0709C1019.5 88.4973 1009.47 82.8639 1001.68 80.0512C981.626 70.6649 979.392 62.2108 953.773 58.4578C932.606 56.5774 938.175 46.2508 932.605 43.4381C929.262 43.4381 924.81 46.2588 921.467 46.2588C913.664 45.3186 918.124 40.6254 909.212 44.3784C903.643 46.2588 904.752 48.1313 902.526 54.7049C896.957 73.4856 905.869 68.7924 909.212 80.0592C910.329 85.6926 908.095 90.3858 908.095 96.0192C908.095 108.226 913.664 112.919 913.664 126.067C913.664 137.333 912.547 148.6 915.89 157.995C918.116 166.449 927.028 173.014 924.802 181.468C921.459 192.735 898.066 203.062 895.84 219.03C901.409 219.97 903.635 219.03 905.869 223.723C905.869 229.356 895.84 234.05 889.153 234.99C886.927 243.444 883.584 249.077 885.81 260.344C886.928 268.798 891.38 273.491 891.38 283.818L908.095 288.511C922.576 291.324 920.35 304.471 925.919 315.738C929.262 321.371 932.606 325.124 931.488 333.578C968.254 349.538 938.175 357.052 982.736 378.646C993.874 384.279 1007.25 380.526 1011.7 396.486C1013.92 407.753 1011.7 418.079 1001.67 420.9C996.1 422.78 996.1 420.9 994.983 426.533C997.209 431.227 992.757 423.713 997.209 429.354C1000.55 433.107 997.209 437.8 994.983 443.442C991.64 450.015 987.188 453.768 986.071 458.461C989.414 461.282 991.64 462.214 994.983 465.035C998.326 467.856 1001.67 471.609 1005.01 473.489C1009.47 475.37 1012.81 475.37 1017.27 476.31C1020.61 477.25 1021.73 478.19 1022.84 480.063L1026.18 486.636C1066.29 487.577 1054.03 487.577 1085.23 507.298C1093.02 511.991 1095.26 514.811 1106.4 513.871C1101.94 498.852 1089.68 496.971 1085.23 477.25C1083 469.736 1080.77 459.41 1086.35 452.836C1091.92 445.322 1097.48 446.262 1101.94 440.629C1097.49 432.175 1090.81 427.482 1085.24 421.848C1078.55 416.215 1075.21 403.068 1080.78 394.622C1085.24 388.048 1095.26 383.355 1099.72 377.721C1104.17 373.028 1105.29 371.148 1109.75 368.335C1113.09 366.455 1118.66 364.582 1123.12 363.642C1158.77 355.188 1154.32 385.235 1174.37 375.849C1182.16 372.096 1189.97 364.582 1201.1 368.335C1211.13 371.156 1215.59 381.482 1226.72 373.968C1227.84 367.395 1225.61 356.128 1225.61 347.674C1225.61 337.347 1228.95 333.586 1234.52 329.833C1245.66 320.447 1257.91 317.626 1274.63 315.746C1302.48 312.925 1318.08 301.658 1337.01 319.499C1358.18 340.16 1381.57 317.618 1397.17 333.586C1406.08 342.973 1413.88 361.753 1420.57 366.447C1430.59 374.901 1446.19 368.327 1460.67 377.713C1466.24 381.466 1489.64 400.247 1494.1 400.247L1509.7 390.861C1533.09 378.654 1545.34 373.96 1568.74 388.98C1574.31 393.673 1579.88 392.733 1585.45 387.1C1592.14 379.586 1585.45 373.952 1593.25 367.379C1599.93 362.686 1604.39 360.805 1613.3 360.805C1623.33 361.745 1626.67 364.558 1631.12 370.191C1644.5 384.279 1646.72 381.458 1669 384.279C1683.48 386.159 1694.63 393.665 1709.11 396.486C1739.19 402.119 1763.7 370.191 1779.3 387.1C1782.64 389.912 1781.52 391.793 1783.76 395.554C1794.89 390.861 1809.38 389.92 1812.73 369.259C1817.18 351.419 1799.35 339.212 1836.12 339.212C1855.06 339.212 1867.32 340.152 1876.23 353.299C1885.14 364.566 1888.48 379.594 1897.4 388.98C1902.96 393.673 1908.53 397.434 1911.88 402.127C1916.33 406.821 1919.67 413.394 1924.13 419.028C1937.5 435.928 1949.76 404.94 1962.01 420.908C1970.93 432.175 1957.55 450.015 1949.76 459.402C1941.96 469.728 1923.02 472.549 1929.71 487.569V489.449C1933.05 487.569 1936.4 485.696 1940.85 486.628C1946.42 487.569 1945.31 490.381 1949.76 493.202C1958.67 494.142 1982.07 461.274 1988.75 451.888C1994.32 444.374 1999.89 437.8 2004.35 428.414C2009.92 420.9 2018.83 413.394 2019.95 403.06C2021.07 396.486 2018.83 390.853 2019.95 384.279C2021.07 377.705 2023.29 373.952 2025.52 369.259C2027.74 363.626 2027.74 357.992 2027.74 351.419C2028.86 342.965 2029.97 337.331 2024.4 334.519C2006.58 324.192 2011.03 327.005 1998.77 333.578C1992.09 336.399 1989.86 333.578 1985.4 329.825C1976.49 322.312 1963.12 324.192 1980.94 305.411L2006.57 280.057C2019.94 268.79 2028.85 253.762 2047.79 243.436C2064.49 234.05 2089 249.069 2113.51 237.802C2120.2 234.982 2126.88 234.05 2132.46 238.743C2138.02 244.376 2136.92 249.069 2149.17 245.316C2164.77 239.683 2163.65 229.356 2174.8 218.09C2179.25 213.396 2182.59 209.635 2187.05 204.942C2195.97 196.488 2214.91 192.735 2226.05 199.309C2227.16 205.883 2224.93 207.763 2222.7 213.396C2228.27 212.456 2248.33 203.07 2251.66 200.249C2253.89 197.428 2256.12 191.795 2260.58 188.042C2262.8 185.221 2266.15 182.409 2270.61 182.409C2278.4 183.349 2272.83 192.735 2270.61 197.428C2265.04 205.883 2266.15 214.329 2257.23 220.902C2241.64 231.229 2223.81 259.404 2210.44 266.91C2198.18 273.483 2197.07 265.029 2189.27 281.929C2183.7 294.136 2180.36 290.375 2178.13 309.156C2177.02 319.483 2178.13 334.51 2182.59 341.084C2189.28 351.411 2189.28 358.925 2189.28 373.944C2189.28 373.944 2189.28 373.004 2190.4 373.944L2208.22 349.53C2211.56 343.897 2213.79 346.71 2218.25 339.204C2220.48 333.57 2220.48 327.937 2224.94 324.184C2229.39 321.363 2236.07 321.363 2239.42 317.61C2242.76 314.79 2241.64 307.284 2244.99 302.591C2248.33 297.897 2253.9 296.957 2251.67 289.443C2247.21 277.236 2249.45 283.81 2249.45 270.663C2247.22 268.782 2244.99 267.842 2242.76 265.969C2242.76 256.583 2250.56 248.129 2255.02 242.496C2260.58 234.982 2266.15 233.109 2275.07 227.476C2282.86 223.723 2282.86 228.416 2287.32 228.416C2295.12 229.356 2302.92 219.962 2314.06 220.902C2320.74 221.842 2321.85 225.595 2326.31 226.536C2329.66 228.416 2359.74 204.002 2366.42 200.241C2375.33 196.488 2380.9 195.548 2389.82 189.915C2400.95 181.46 2406.53 191.795 2417.67 186.162C2416.55 181.468 2414.33 176.775 2412.1 173.014C2408.76 165.5 2400.96 158.927 2394.28 155.174C2375.33 144.847 2393.16 135.453 2404.31 142.027C2408.77 143.907 2409.87 145.78 2415.44 144.847C2433.27 142.967 2423.25 122.314 2435.49 122.314C2444.41 121.374 2442.18 131.7 2453.32 132.64C2463.35 134.521 2466.69 133.581 2473.37 140.154C2477.82 144.847 2481.16 148.608 2490.08 151.421C2501.21 153.301 2503.45 149.54 2507.9 141.094C2512.36 130.768 2514.59 133.581 2524.62 129.828C2524.62 120.441 2517.93 118.561 2511.24 115.74C2505.67 113.86 2498.99 108.226 2492.3 108.226C2485.62 113.86 2483.39 121.374 2476.7 108.226C2468.91 93.2065 2460 89.4455 2446.62 80.9995C2429.91 71.6131 2406.52 57.5256 2387.58 54.7049C2378.67 53.7647 2370.87 53.7647 2361.95 52.8244C2344.13 52.8244 2334.1 44.3703 2338.56 58.4578C2340.79 66.912 2335.22 75.358 2326.31 73.4776C2322.96 73.4776 2316.28 68.7844 2315.17 66.9039C2308.48 61.2705 2314.05 57.5176 2315.17 51.8842C2305.14 49.0715 2305.14 52.8244 2298.46 56.5774C2292.89 59.3981 2286.2 57.5176 2278.41 57.5176C2272.84 57.5176 2261.7 56.5773 2256.13 57.5176C2246.1 58.4578 2248.33 65.0315 2238.3 64.0912C2231.61 54.7049 2219.36 36.8645 2209.34 32.1633C2204.88 30.2828 2165.89 33.1035 2153.63 30.2828C2144.72 28.4023 2141.38 24.6494 2132.46 20.8965C2122.43 16.2033 2120.21 17.1436 2114.64 8.68944C2110.19 3.99628 2102.38 -2.57738 2092.35 0.235306C2085.67 2.11578 2081.22 15.255 2073.41 10.5619C2067.84 6.80896 2068.95 -0.704918 2065.61 -5.39808C2060.04 -11.9717 2035.53 -13.8522 2028.84 -9.15101C2026.62 -7.27053 2025.5 -6.33029 2022.16 -4.45785C2019.93 -2.57737 2016.59 -1.64517 2014.36 0.235306C2016.59 7.74919 2018.82 13.3826 2009.91 17.1355C2003.22 19.016 1993.2 18.0757 1987.63 17.1355C1975.37 15.255 1976.49 18.0758 1967.58 19.9562C1956.44 21.8367 1955.32 17.1355 1948.63 14.3228C1937.5 9.62967 1940.84 36.8564 1918.56 24.6494C1912.99 21.8367 1907.42 17.1355 1905.18 13.3826C1897.39 3.99628 1902.96 1.17555 1906.3 -4.45785C1906.3 -16.6649 1899.61 -23.2385 1887.36 -24.1787C1872.88 -25.119 1861.73 -30.7524 1857.28 -30.7524C1848.37 -7.27857 1842.8 -14.7924 1829.43 -18.5454C1816.05 -21.3661 1802.69 -17.6051 1791.55 -27.9317C1774.84 -42.9514 1760.35 -28.8719 1741.42 -30.7524C1732.51 -32.6329 1728.05 -38.2663 1718.03 -31.6926C1709.11 -26.9995 1710.23 -22.3063 1696.86 -21.3661C1689.06 -20.4258 1676.81 -16.6729 1671.23 -21.3661C1669.01 -34.5134 1687.95 -37.326 1695.74 -41.087C1700.2 -42.9675 1716.91 -56.1067 1723.6 -59.8677C1729.17 -64.5608 1746.99 -74.8874 1748.11 -81.461C1749.22 -93.6681 1730.28 -93.6681 1721.37 -100.242C1708 -110.568 1697.98 -96.4888 1684.6 -101.182C1680.14 -102.122 1675.69 -106.815 1671.23 -109.636C1662.32 -114.329 1664.55 -117.15 1658.98 -121.843C1648.95 -129.357 1632.24 -115.269 1628.9 -109.636C1624.44 -104.003 1624.44 -101.182 1616.64 -98.3693C1609.96 -96.4888 1605.5 -97.429 1599.93 -92.7359C1586.56 -81.4691 1580.99 -88.983 1562.06 -87.1025C1555.37 -86.1622 1552.03 -83.3496 1546.46 -80.5289C1540.89 -77.7081 1535.32 -76.7759 1528.64 -75.8357C1521.95 -75.8357 1514.16 -76.7759 1508.59 -73.9552C1485.19 -60.8079 1503.02 -52.3618 1494.11 -41.095C1484.08 -27.9478 1448.43 -42.9755 1438.4 -27.9477C1426.14 -11.0475 1449.54 -11.9878 1450.65 0.219246C1451.77 8.67337 1445.08 11.486 1438.4 9.60556C1425.03 4.9124 1423.92 -10.1154 1407.2 -5.41416L1397.17 2.09972C1392.71 5.85265 1396.06 1.15949 1393.83 5.85265L1393.81 5.87675Z" fill="#4B4C54"/>
<path d="M991.65 658V651H996.76V652.42H993.27V653.69H996.48V655.07H993.27V656.58H996.79V658H991.65ZM1000.85 658.14C1000.27 658.14 999.752 658.023 999.299 657.79C998.846 657.557 998.489 657.223 998.229 656.79C997.976 656.35 997.849 655.833 997.849 655.24V651H999.469V655.04C999.469 655.4 999.529 655.7 999.649 655.94C999.769 656.173 999.932 656.35 1000.14 656.47C1000.35 656.583 1000.59 656.64 1000.85 656.64C1001.12 656.64 1001.35 656.583 1001.56 656.47C1001.77 656.35 1001.93 656.173 1002.05 655.94C1002.17 655.7 1002.23 655.4 1002.23 655.04V651H1003.85V655.24C1003.85 655.833 1003.72 656.35 1003.46 656.79C1003.21 657.223 1002.85 657.557 1002.4 657.79C1001.95 658.023 1001.44 658.14 1000.85 658.14ZM1005.03 658V651H1008.08C1008.64 651 1009.11 651.08 1009.5 651.24C1009.89 651.4 1010.19 651.633 1010.39 651.94C1010.6 652.247 1010.7 652.62 1010.7 653.06C1010.7 653.447 1010.6 653.807 1010.41 654.14C1010.22 654.473 1009.94 654.74 1009.55 654.94C1009.16 655.14 1008.67 655.24 1008.08 655.24H1006.65V658H1005.03ZM1009.08 658L1007.44 655.1L1009.1 654.96L1010.82 658H1009.08ZM1006.65 653.92H1008.24C1008.55 653.92 1008.78 653.847 1008.92 653.7C1009.06 653.547 1009.13 653.353 1009.13 653.12C1009.13 652.887 1009.06 652.697 1008.92 652.55C1008.78 652.397 1008.55 652.32 1008.24 652.32H1006.65V653.92ZM1015.09 658.14C1014.56 658.14 1014.06 658.047 1013.61 657.86C1013.16 657.673 1012.77 657.413 1012.44 657.08C1012.11 656.747 1011.86 656.36 1011.68 655.92C1011.5 655.48 1011.41 655.007 1011.41 654.5C1011.41 653.993 1011.5 653.52 1011.68 653.08C1011.86 652.64 1012.11 652.253 1012.44 651.92C1012.77 651.587 1013.16 651.327 1013.61 651.14C1014.06 650.953 1014.56 650.86 1015.09 650.86C1015.62 650.86 1016.11 650.953 1016.56 651.14C1017.01 651.327 1017.4 651.587 1017.73 651.92C1018.06 652.253 1018.32 652.64 1018.5 653.08C1018.68 653.52 1018.77 653.993 1018.77 654.5C1018.77 655.007 1018.68 655.48 1018.5 655.92C1018.32 656.36 1018.06 656.747 1017.73 657.08C1017.4 657.413 1017.01 657.673 1016.56 657.86C1016.11 658.047 1015.62 658.14 1015.09 658.14ZM1015.09 656.64C1015.47 656.64 1015.81 656.557 1016.12 656.39C1016.43 656.217 1016.68 655.97 1016.87 655.65C1017.06 655.33 1017.15 654.947 1017.15 654.5C1017.15 654.053 1017.06 653.67 1016.87 653.35C1016.68 653.03 1016.43 652.787 1016.12 652.62C1015.81 652.447 1015.47 652.36 1015.09 652.36C1014.72 652.36 1014.37 652.447 1014.06 652.62C1013.75 652.787 1013.5 653.03 1013.31 653.35C1013.12 653.67 1013.03 654.053 1013.03 654.5C1013.03 654.947 1013.12 655.33 1013.31 655.65C1013.5 655.97 1013.75 656.217 1014.06 656.39C1014.37 656.557 1014.72 656.64 1015.09 656.64ZM1019.78 658V651H1023.05C1023.88 651 1024.54 651.193 1025.04 651.58C1025.54 651.96 1025.79 652.537 1025.79 653.31C1025.79 654.077 1025.54 654.653 1025.04 655.04C1024.54 655.427 1023.88 655.62 1023.05 655.62H1021.4V658H1019.78ZM1021.4 654.28H1023.01C1023.42 654.28 1023.72 654.19 1023.9 654.01C1024.08 653.823 1024.17 653.59 1024.17 653.31C1024.17 653.03 1024.08 652.8 1023.9 652.62C1023.72 652.433 1023.42 652.34 1023.01 652.34H1021.4V654.28ZM1026.72 658V651H1031.83V652.42H1028.34V653.69H1031.55V655.07H1028.34V656.58H1031.86V658H1026.72Z" fill="white"/>
<g clip-path="url(#clip1_22_378)">
<rect x="34" y="31" width="449.164" height="289.482" fill="#30303A"/>
<path fill-rule="evenodd" clip-rule="evenodd" d="M264.052 -12.9247C268.278 -12.9247 277.338 -16.9976 284.587 -7.83685C286.399 -5.2929 285.794 -1.72965 283.38 -0.710331C280.963 0.814289 274.32 -1.72966 268.888 1.8336C264.662 4.37754 262.245 7.94081 258.019 10.4848C251.982 14.048 250.17 13.0287 242.921 13.0287C235.072 13.5383 238.696 19.6456 233.865 23.7185C230.241 26.7721 224.809 26.7721 219.973 28.8107C215.142 30.3353 212.124 32.8836 207.293 34.4082C193.401 38.4812 188.571 29.3204 176.496 28.8107C160.792 27.7914 158.379 31.3547 149.322 19.1403C140.262 6.92585 131.811 12.5234 128.187 2.34327C126.375 -3.76393 127.581 -9.36147 123.356 -12.4151C121.544 -13.944 119.131 -14.4493 117.318 -15.9783C115.506 -16.9976 113.694 -18.5223 111.882 -20.0513C104.634 -18.017 104.032 -11.9098 102.22 -8.85181C99.8027 -3.76393 93.1597 -5.79821 88.3288 -2.74461C87.7233 1.83362 88.9343 5.39687 85.9112 7.94516C83.4935 9.47414 78.6627 8.45481 78.0615 12.0181C76.2494 17.106 80.4792 25.2518 72.0241 32.3783C64.7756 38.4855 60.5502 44.0831 50.8884 48.156C47.8697 49.1753 44.851 49.685 42.4334 52.2289C41.8279 54.2632 46.6587 64.953 46.6587 64.953C47.2642 66.482 49.6774 66.9873 51.4895 69.0259C52.6962 71.0602 53.9072 73.0988 54.5084 75.1331C63.5646 79.206 62.9634 75.6427 65.9822 87.3475C69.6064 99.0522 56.9216 108.213 82.8924 114.83C88.9299 116.359 94.9718 122.971 105.235 128.573C106.441 129.083 107.652 129.593 108.859 130.102C111.272 131.631 110.671 132.137 113.084 131.631C125.164 128.068 118.521 127.049 132.408 129.597C137.844 130.107 143.276 123.49 146.9 120.946C155.961 114.839 156.562 128.578 160.186 130.107C160.792 130.107 161.393 130.107 161.999 130.616C164.412 131.126 167.435 134.689 167.435 138.252C168.642 147.413 160.186 144.869 172.266 163.701C175.89 169.298 178.909 168.283 181.326 171.337C186.157 168.793 194.612 162.686 200.65 161.666C212.729 159.632 208.5 170.827 214.541 176.934C216.959 175.915 220.579 172.861 222.997 172.356C226.015 171.846 227.222 174.39 230.245 177.444C232.057 176.934 232.658 175.915 234.47 174.9C236.282 173.881 238.095 173.375 239.907 172.866C242.925 171.337 245.343 168.283 248.967 166.759C252.592 165.739 257.422 166.249 261.047 165.234C264.671 163.705 267.084 160.651 269.502 158.617C271.919 155.563 273.727 154.034 276.75 150.981C280.976 145.893 279.164 147.927 281.581 140.291C283.999 134.184 292.45 130.621 293.661 120.95C291.247 119.421 289.435 118.916 290.036 114.333C290.642 108.736 288.224 110.26 289.431 104.663C289.431 102.629 293.055 98.046 284.6 90.4098C282.788 88.8808 280.976 86.8466 280.375 83.2833C280.375 79.72 282.187 77.1761 283.999 76.1568C288.83 72.5935 293.661 70.5592 295.473 65.467C283.999 64.9573 284.604 70.5549 280.375 68.5206C277.961 67.5013 278.562 63.938 277.356 61.3941C275.544 58.8501 266.487 56.3062 277.356 51.214C279.769 50.1946 281.581 49.1797 283.393 47.141C285.811 45.6121 287.018 44.5971 288.83 42.5585C290.642 41.0295 293.055 38.4855 295.473 39.5048C300.304 43.0681 294.867 50.7043 293.661 54.7728C301.51 53.2438 300.909 46.1217 312.984 47.6463C316.608 39.5048 321.439 41.0295 328.082 35.9416C334.12 31.359 333.519 31.8687 340.763 28.815C342.575 27.7957 344.387 27.7958 345.594 27.2861C347.406 22.1982 342.575 20.1596 347.406 14.562C349.218 12.0181 353.443 10.4891 356.466 7.43551C358.884 4.89157 361.297 1.83796 363.109 -1.7253C364.921 -4.7789 367.335 -11.9054 361.903 -12.9247C359.489 -13.4344 355.865 -8.85181 351.034 -8.85181C344.997 -8.34216 344.391 -11.9054 341.373 -15.4687C335.335 -25.1391 330.504 -25.6488 326.274 -32.771C322.65 -38.8782 319.026 -49.0583 313.594 -52.1119C309.369 -54.6558 290.041 -56.1848 287.627 -52.1119C285.815 -50.0776 292.458 -38.8782 280.379 -28.698C273.13 -22.0812 265.281 -26.6638 264.074 -12.9204L264.052 -12.9247Z" fill="#88888E"/>
<path fill-rule="evenodd" clip-rule="evenodd" d="M132.403 173.354C134.215 177.427 134.821 176.917 137.234 179.971C152.332 197.782 142.065 196.258 145.084 206.438C153.539 209.492 151.727 201.35 158.37 202.365C160.787 207.963 156.558 207.963 162.595 218.652C165.614 212.545 159.577 199.821 163.201 188.622C165.614 179.461 175.28 177.932 179.505 172.844C171.05 168.771 169.238 163.174 165.013 155.032C161.994 148.925 163.806 146.891 165.013 141.289C166.219 135.691 161.994 130.599 158.975 133.653C157.163 135.182 156.562 136.196 154.75 137.725C145.689 143.833 148.712 145.867 146.295 154.013C143.877 162.664 134.821 167.247 132.403 173.354Z" fill="#4B4C54"/>
<path fill-rule="evenodd" clip-rule="evenodd" d="M195.81 299.07C194.603 294.492 192.791 293.982 192.186 287.365C191.58 282.277 190.979 279.729 189.167 275.66C182.524 265.48 178.9 270.063 175.881 259.883C172.862 250.722 169.238 247.668 171.656 235.963C175.28 219.166 177.693 228.837 186.148 231.381C184.942 218.657 186.148 220.181 201.848 216.113C196.411 194.738 195.205 198.806 186.749 200.845C175.881 203.389 180.106 186.596 174.67 179.979C170.445 182.523 166.215 184.562 165.008 190.669C161.99 202.884 167.426 202.374 165.008 218.661C165.008 222.224 169.234 233.42 167.426 247.673C166.821 250.726 164.407 252.76 166.219 255.814C166.825 256.833 169.844 259.887 171.05 261.412C174.069 264.975 175.276 271.082 176.487 276.17C178.9 284.311 179.505 284.821 184.336 289.404C187.355 291.948 192.186 297.545 195.81 299.074V299.07Z" fill="#88888E"/>
<path fill-rule="evenodd" clip-rule="evenodd" d="M192.19 167.756C192.796 177.936 199.439 174.373 201.251 179.97C203.668 187.097 197.025 191.675 195.814 196.767C200.645 200.331 199.439 201.855 201.852 207.963C204.27 215.089 203.059 215.599 210.307 217.123C214.532 218.143 218.157 221.702 217.556 227.303C216.95 230.867 212.119 234.43 209.706 236.974C210.311 239.518 210.311 239.008 211.518 241.047C211.922 241.387 212.124 241.726 212.124 242.066L213.33 243.591C215.748 242.066 218.161 240.537 220.579 238.503C223.597 235.959 224.203 234.94 224.203 229.342C224.808 220.181 226.015 213.564 219.372 209.492C216.353 207.457 215.748 205.419 213.335 202.875C209.109 198.292 203.067 195.748 206.692 185.568C207.898 182.005 209.71 180.48 212.128 177.932C210.921 175.898 209.715 174.369 209.109 171.825C208.504 169.281 207.903 166.227 206.09 164.698C201.26 161.645 195.823 166.732 192.199 167.752L192.19 167.756Z" fill="#4B4C54"/>
<path fill-rule="evenodd" clip-rule="evenodd" d="M314.173 49.171C317.797 55.2782 312.967 56.2976 312.967 61.8951C319.61 63.9294 323.234 61.3855 323.234 72.0752C323.234 76.6578 322.027 80.7263 322.628 85.8186C325.046 85.8186 326.854 83.7843 328.666 82.765C331.685 80.7307 332.891 81.236 335.914 80.2211C337.726 76.1481 336.52 66.4777 333.497 63.4241C330.478 59.8608 325.647 57.3169 325.647 49.171C329.271 47.1367 333.497 45.0981 335.309 42.0445C337.121 39.5006 340.745 33.903 341.952 31.3547C335.914 32.8837 332.29 36.4426 327.459 39.4962C325.046 41.0252 322.023 41.5305 319.61 43.0595C316.591 45.0938 316.591 46.6227 314.173 49.1667V49.171Z" fill="#4B4C54"/>
<path fill-rule="evenodd" clip-rule="evenodd" d="M203.664 254.28L210.913 245.12C209.1 241.556 206.082 239.013 208.495 234.94C209.702 232.396 214.533 230.361 215.138 226.798C215.744 221.71 211.514 220.181 207.889 219.672C206.077 219.162 204.265 218.147 203.059 218.652C201.247 219.162 199.434 220.177 197.622 220.687C187.355 223.23 187.961 220.687 188.562 231.886C188.562 234.94 189.167 235.449 190.374 237.484C195.205 244.61 201.242 240.537 202.453 250.717C202.453 251.227 203.059 251.737 203.059 252.246L203.664 254.28Z" fill="#4B4C54"/>
<path fill-rule="evenodd" clip-rule="evenodd" d="M124.554 141.293C125.76 147.4 130.591 145.366 134.216 148.419C135.422 149.439 136.633 152.998 139.046 156.561L141.464 159.105C142.069 156.561 143.877 155.542 144.483 151.978C145.088 148.925 145.088 145.871 146.295 142.818C148.107 137.73 153.543 135.691 157.163 132.128C156.558 128.564 154.144 122.967 151.126 122.457C146.9 121.948 143.276 128.055 137.84 131.108C134.215 133.143 135.427 131.108 133.009 134.162C127.573 140.269 127.572 138.745 124.554 141.289V141.293Z" fill="#4B4C54"/>
<path fill-rule="evenodd" clip-rule="evenodd" d="M347.388 89.3775C351.614 92.4311 359.467 86.3239 367.317 87.8485C368.524 91.4118 367.923 96.4997 373.355 93.9557C375.768 92.9364 378.791 90.3925 381.81 89.3731C388.453 85.8099 393.889 85.3002 398.114 79.7027C403.551 72.5762 400.532 65.454 404.152 57.8178C405.964 53.7449 406.57 53.7449 405.964 47.128C405.359 43.0551 406.57 37.4576 401.739 37.9672C392.682 39.4962 395.096 48.1474 392.682 55.7792C389.058 65.4496 383.021 66.9786 378.791 69.0129C374.566 71.0472 374.566 74.1008 372.753 75.6297C371.547 76.6491 364.298 76.6491 361.28 77.1587C356.449 78.6877 346.787 82.7563 347.388 89.3731V89.3775Z" fill="#88888E"/>
<path fill-rule="evenodd" clip-rule="evenodd" d="M177.093 178.446C179.506 184.043 180.717 193.714 183.13 198.296C187.355 198.296 189.168 196.772 193.397 196.262C194.604 192.189 200.646 185.572 199.435 181.504C198.228 178.45 195.209 178.45 193.397 176.921C190.984 174.887 190.984 172.343 189.773 169.795C185.548 171.829 180.712 175.392 177.093 178.446Z" fill="#4B4C54"/>
<path fill-rule="evenodd" clip-rule="evenodd" d="M360.069 89.3774C357.651 89.8871 355.843 91.9214 352.82 92.9407C347.989 93.96 338.328 91.4117 341.952 101.082C343.159 104.136 343.159 108.209 346.177 108.718C348.591 108.718 363.689 95.4846 364.294 93.96C366.106 90.3967 363.088 87.8528 360.069 89.3774Z" fill="#4B4C54"/>
<path fill-rule="evenodd" clip-rule="evenodd" d="M296.662 212.036C299.075 214.58 305.722 218.143 311.76 229.342C321.422 249.193 312.365 254.281 298.474 228.323C294.249 220.181 290.019 226.798 285.793 220.181C279.15 211.021 283.38 206.948 285.188 204.404C286.395 201.35 285.793 198.297 286.395 194.224C289.413 193.204 291.831 192.189 293.639 194.733C299.676 202.875 293.033 207.967 296.657 212.036H296.662ZM320.816 256.315C319.004 252.752 320.816 251.732 320.211 248.169C313.568 244.606 313.568 254.276 305.113 256.315C301.488 257.334 299.075 257.84 297.263 261.403C293.639 268.02 300.887 266.495 303.906 266.495C305.113 268.02 309.943 278.71 313.568 276.675C315.38 274.637 315.38 273.112 316.586 270.058C317.793 266.495 318.399 266.495 320.211 263.951C322.023 260.898 322.023 259.878 320.816 256.319V256.315ZM297.263 236.974C291.827 239.008 296.056 243.591 297.263 246.645C298.47 249.698 298.47 257.334 304.511 253.261C311.76 248.683 300.887 235.955 297.263 236.974Z" fill="#4B4C54"/>
<path fill-rule="evenodd" clip-rule="evenodd" d="M307.53 299.07C310.549 298.56 311.154 301.104 309.943 303.648C306.925 311.284 296.052 307.721 293.033 308.23C289.409 308.23 283.371 312.303 286.996 315.867C289.413 318.92 292.432 309.25 299.075 313.323C301.488 315.357 300.282 318.411 299.075 319.43C297.868 320.954 295.451 321.974 293.639 322.993C295.451 325.537 296.657 325.027 297.263 329.61C297.263 332.154 296.657 331.644 297.868 334.193C298.47 336.227 299.075 335.717 298.469 337.756C295.451 340.809 292.432 338.265 290.62 336.231C287.601 332.668 288.207 329.614 285.789 329.105C285.789 331.139 285.789 333.687 285.183 335.722C282.77 336.741 282.165 336.231 280.353 333.687C278.541 331.649 276.728 331.143 276.123 329.105C275.517 326.561 277.935 325.541 278.536 322.997C279.142 320.963 279.142 317.91 279.142 315.361C280.348 307.22 286.39 297.549 294.845 300.093C297.259 300.603 299.071 301.618 302.089 301.113C305.108 301.113 305.714 299.588 307.526 299.078L307.53 299.07ZM308.737 361.161C312.962 361.671 321.417 355.563 321.417 363.705C320.211 365.229 319.004 365.739 316.586 366.758C312.962 369.302 305.113 377.958 302.695 373.885C300.883 371.341 302.695 369.812 303.3 367.778C299.676 364.724 293.639 367.268 287.597 365.739C285.785 365.23 282.16 363.705 283.973 360.651C285.179 358.617 289.409 359.122 291.822 359.122C294.841 359.122 298.465 359.122 301.484 359.632C304.503 359.632 305.714 361.161 308.732 361.161H308.737ZM263.447 358.617C264.653 358.107 273.109 359.127 274.921 359.636C280.357 363.2 272.507 366.763 271.296 367.782C265.259 372.365 265.86 371.345 262.841 367.272C260.428 364.729 257.405 360.656 263.447 358.621V358.617ZM251.973 358.617C247.743 355.563 248.349 352 241.706 350.985C232.044 348.946 226.006 351.495 219.363 347.422C216.345 345.897 214.533 346.403 212.119 347.422C209.1 347.932 201.251 348.441 209.706 355.058C215.142 359.127 215.744 358.621 222.992 359.127C229.03 360.146 229.635 363.2 236.883 363.2C244.132 363.2 244.132 366.763 251.376 366.253C256.207 365.743 259.831 362.69 251.982 358.617H251.973ZM207.284 319.935C210.908 326.042 207.284 331.135 206.077 336.732C201.848 355.563 198.228 345.383 192.791 340.805C189.773 338.261 179.505 329.1 178.299 326.042C174.675 318.411 178.299 318.41 171.656 311.794C161.994 301.104 168.032 304.157 165.013 298.05C161.994 291.943 147.501 284.817 147.501 275.656C150.52 273.112 154.75 275.656 157.769 276.675C162.6 277.694 163.205 277.694 165.013 282.273C166.219 284.817 174.675 293.977 180.111 295.506C186.148 297.031 190.979 303.138 193.397 309.755C194.604 314.843 195.815 315.862 198.228 318.916C203.664 324.513 201.852 319.935 207.284 319.935Z" fill="#4B4C54"/>
<path fill-rule="evenodd" clip-rule="evenodd" d="M332.29 324.518C345.576 321.464 345.576 337.752 340.14 335.717C338.327 335.208 337.726 333.683 335.91 332.664C334.098 332.154 332.286 332.664 330.474 331.644C325.643 330.12 327.455 325.537 332.286 324.518H332.29ZM331.083 299.07C332.895 300.594 334.102 300.089 334.102 303.648C334.102 307.721 330.478 311.794 326.252 311.284C323.835 308.231 323.835 300.594 326.252 296.526C329.877 296.016 328.666 297.545 331.083 299.07Z" fill="#4B4C54"/>
<path fill-rule="evenodd" clip-rule="evenodd" d="M436.16 354.544C439.785 365.744 454.277 369.812 450.052 374.395C448.845 375.919 448.24 374.395 444.616 374.395C436.766 373.885 436.766 378.977 431.33 369.812C430.123 367.778 429.517 367.778 428.311 366.249C427.104 364.72 426.499 363.705 425.292 362.176C424.086 360.137 421.062 357.593 417.443 357.593C415.63 359.628 415.63 361.666 413.818 363.701C412.612 365.225 405.969 371.332 402.95 371.332C401.713 371.123 400.855 370.614 400.223 369.934V326.7C400.502 326.796 400.807 326.914 401.138 327.053C404.762 328.072 413.818 331.631 416.236 333.16C425.898 340.287 424.691 343.34 434.954 347.919C439.785 349.957 437.371 351.992 436.16 354.535V354.544ZM397.753 364.546C397.082 363.052 396.085 361.858 393.889 361.671C390.87 361.671 389.058 362.69 386.04 362.18C383.622 362.18 381.209 360.142 381.81 357.598C383.017 355.054 384.829 354.544 386.641 353.015C386.641 349.452 385.434 347.927 384.223 346.398C373.956 334.184 374.561 342.835 366.712 340.291C364.299 339.272 364.299 337.747 361.881 336.218C359.468 334.184 358.862 335.199 356.445 333.674C354.632 333.165 352.82 331.13 352.82 328.586C352.215 326.042 354.632 325.023 356.445 324.004C355.839 323.494 357.05 324.004 355.238 323.494H354.031C353.426 322.984 352.825 322.985 352.219 322.985C347.388 321.46 344.975 314.333 346.783 312.295C347.989 311.275 354.031 311.785 355.843 312.295C366.712 313.819 363.092 321.456 364.904 326.034C366.111 328.072 369.735 329.597 372.754 329.087C377.584 328.068 375.772 319.927 385.434 320.436C389.058 320.436 390.871 321.965 393.284 323.999C396.006 326.622 396.472 326.286 397.753 326.265V364.537V364.546Z" fill="#4B4C54"/>
<path fill-rule="evenodd" clip-rule="evenodd" d="M236.274 291.434C238.687 290.414 241.71 291.943 244.729 291.434C246.541 286.851 247.748 282.273 251.372 279.729C256.203 276.675 257.409 281.763 262.24 272.602C270.695 257.334 270.09 271.078 274.319 273.112C276.733 274.637 277.338 273.622 279.756 275.656C280.653 281.707 276.214 281.014 273.631 283.811C273.405 283.684 273.148 283.549 272.865 283.41C272.242 283.109 271.462 282.783 270.652 282.495C269.942 282.242 269.201 282.02 268.509 281.868C267.742 281.698 267.032 281.624 266.335 281.654C265.62 281.685 264.941 281.833 264.253 282.103C263.56 282.373 262.854 282.783 262.144 283.405C261.456 284.011 260.768 284.821 260.106 285.91C259.213 287.387 258.359 289.378 257.57 291.22L256.704 293.207C256.229 294.261 255.793 295.11 255.362 295.833C254.939 296.548 254.508 297.158 254.033 297.737C253.545 298.334 253.005 298.896 252.478 299.34C252.056 299.697 251.659 299.959 251.333 300.072C250.845 300.242 250.309 299.993 249.686 299.701L249.433 299.58C248.906 299.34 248.322 299.096 247.626 298.948C246.915 298.795 246.123 298.756 245.238 298.944C244.036 299.196 242.747 299.854 241.619 300.425L240.564 300.947C240.042 301.187 239.637 301.335 239.279 301.37C238.948 301.4 238.595 301.344 238.151 301.183C237.589 300.982 236.905 300.625 236.152 300.094C235.49 299.623 234.78 299.022 234.065 298.268C233.769 297.959 233.468 297.619 233.168 297.258C233.564 294.91 233.429 292.222 236.278 291.425L236.274 291.434ZM272.32 286.093L271.919 285.893C271.366 285.627 270.665 285.331 269.933 285.074C269.293 284.847 268.635 284.647 268.047 284.521C267.441 284.39 266.91 284.329 266.422 284.351C265.952 284.373 265.499 284.468 265.032 284.651C264.566 284.834 264.087 285.109 263.608 285.531C263.111 285.971 262.597 286.585 262.075 287.439C261.277 288.755 260.467 290.65 259.718 292.396L258.834 294.435C258.315 295.572 257.832 296.517 257.344 297.345C256.843 298.186 256.342 298.904 255.789 299.571C255.196 300.294 254.547 300.978 253.907 301.514C253.284 302.036 252.644 302.441 252.03 302.655C250.718 303.108 249.817 302.69 248.767 302.202L248.523 302.089C248.1 301.897 247.643 301.705 247.168 301.605C246.72 301.509 246.219 301.483 245.67 301.601C244.764 301.792 243.605 302.381 242.594 302.895L241.466 303.452C240.734 303.792 240.12 304.001 239.475 304.066C238.813 304.132 238.169 304.036 237.415 303.766C236.674 303.5 235.803 303.051 234.871 302.394C234.1 301.849 233.272 301.139 232.427 300.255C231.491 299.27 230.545 298.072 229.6 296.779C227.274 295.119 224.595 293.995 222.983 298.064C219.965 308.244 226.002 315.37 227.209 318.424C230.227 323.512 228.415 326.565 234.457 329.114C238.683 330.638 236.269 329.623 239.288 332.677C242.307 336.24 248.95 331.148 251.968 334.202C253.175 335.726 255.593 340.818 261.029 332.677C264.048 328.604 264.653 325.55 267.067 320.968C270.085 314.861 270.691 316.895 271.296 307.734C280.958 304.171 275.522 302.646 274.315 296.535C273.71 293.991 271.897 289.918 271.897 288.393C271.958 287.505 272.107 286.751 272.316 286.106L272.32 286.093Z" fill="#4B4C54"/>
<path d="M439.05 299L441.9 292H443.42L446.27 299H444.51L442.95 294.79C442.897 294.637 442.847 294.497 442.8 294.37C442.753 294.243 442.717 294.143 442.69 294.07C442.67 293.997 442.66 293.96 442.66 293.96C442.66 293.96 442.647 293.997 442.62 294.07C442.6 294.143 442.567 294.243 442.52 294.37C442.48 294.497 442.43 294.637 442.37 294.79L440.81 299H439.05ZM441.34 297.16L441.73 296.08H443.59L443.98 297.16H441.34ZM449.569 299.14C448.963 299.14 448.453 299.043 448.039 298.85C447.626 298.65 447.296 298.38 447.049 298.04C446.803 297.693 446.619 297.303 446.499 296.87L447.869 296.21C447.956 296.53 448.069 296.803 448.209 297.03C448.349 297.257 448.529 297.43 448.749 297.55C448.969 297.663 449.243 297.72 449.569 297.72C449.783 297.72 449.966 297.69 450.119 297.63C450.273 297.563 450.393 297.477 450.479 297.37C450.566 297.257 450.609 297.133 450.609 297C450.609 296.867 450.576 296.747 450.509 296.64C450.443 296.533 450.343 296.44 450.209 296.36C450.083 296.273 449.919 296.2 449.719 296.14C449.526 296.073 449.299 296.017 449.039 295.97C448.686 295.903 448.373 295.81 448.099 295.69C447.826 295.57 447.596 295.423 447.409 295.25C447.223 295.07 447.079 294.867 446.979 294.64C446.886 294.413 446.839 294.157 446.839 293.87C446.839 293.463 446.943 293.11 447.149 292.81C447.363 292.51 447.656 292.277 448.029 292.11C448.409 291.943 448.853 291.86 449.359 291.86C450.053 291.86 450.616 292.013 451.049 292.32C451.489 292.62 451.833 293.077 452.079 293.69L450.869 294.41C450.743 294.037 450.553 293.74 450.299 293.52C450.046 293.293 449.723 293.18 449.329 293.18C449.136 293.18 448.959 293.207 448.799 293.26C448.646 293.313 448.523 293.39 448.429 293.49C448.343 293.59 448.299 293.707 448.299 293.84C448.299 293.933 448.326 294.023 448.379 294.11C448.439 294.19 448.533 294.267 448.659 294.34C448.786 294.413 448.956 294.487 449.169 294.56C449.383 294.627 449.646 294.693 449.959 294.76C450.346 294.84 450.679 294.943 450.959 295.07C451.239 295.19 451.469 295.337 451.649 295.51C451.836 295.677 451.973 295.877 452.059 296.11C452.153 296.337 452.199 296.597 452.199 296.89C452.199 297.29 452.099 297.663 451.899 298.01C451.699 298.35 451.403 298.623 451.009 298.83C450.623 299.037 450.143 299.14 449.569 299.14ZM453.166 299V292H454.786V299H453.166ZM455.31 299L458.16 292H459.68L462.53 299H460.77L459.21 294.79C459.156 294.637 459.106 294.497 459.06 294.37C459.013 294.243 458.976 294.143 458.95 294.07C458.93 293.997 458.92 293.96 458.92 293.96C458.92 293.96 458.906 293.997 458.88 294.07C458.86 294.143 458.826 294.243 458.78 294.37C458.74 294.497 458.69 294.637 458.63 294.79L457.07 299H455.31ZM457.6 297.16L457.99 296.08H459.85L460.24 297.16H457.6Z" fill="white"/>
</g>
<rect x="35" y="32" width="447.164" height="287.482" stroke="#88888E" stroke-width="2"/>
<g clip-path="url(#clip2_22_378)">
<rect x="34.9338" y="332.886" width="448.23" height="351.114" fill="#30303A"/>
<path fill-rule="evenodd" clip-rule="evenodd" d="M255.133 232.181C256.525 236.879 257.223 241.573 251.65 242.161C246.776 239.814 248.861 235.703 246.077 233.352C245.379 232.764 237.715 228.065 236.323 228.065C233.535 234.523 235.625 235.698 226.57 236.286C221.695 236.286 211.942 236.874 207.761 236.286C204.977 235.698 204.278 233.94 201.489 232.764C198.7 232.176 195.916 232.764 193.128 231.588C187.555 230.412 188.253 223.955 181.982 223.955C179.891 229.241 182.68 228.653 177.801 233.347C178.499 237.457 179.891 238.633 177.801 242.739C176.409 245.085 175.012 246.849 171.53 246.849C165.957 240.98 172.922 236.869 158.293 236.869C150.63 236.869 142.268 236.869 134.605 236.281C119.278 235.693 130.424 226.889 130.424 222.779C125.55 221.015 119.278 221.603 113.706 221.015C108.133 220.427 104.65 218.08 99.0773 216.905C92.806 215.729 89.3236 212.206 85.1427 211.618C77.4794 211.03 71.208 221.01 69.1176 212.794C68.4191 211.03 68.4191 209.271 68.4191 207.508C64.9367 209.854 61.4543 218.663 55.8814 213.965C53.0925 211.03 51.007 202.221 46.8261 201.045C44.0372 204.568 45.4342 209.854 39.8613 211.613C36.3789 212.201 36.3789 211.613 33.59 213.377C22.4443 219.834 21.0523 210.442 14.7809 213.377C7.81613 216.899 7.11763 215.136 -0.545677 215.136C0.152817 219.246 1.54477 218.07 0.152809 223.357C-3.3296 225.121 -4.72156 224.533 -8.90246 222.769C-12.3849 220.422 -14.4753 220.422 -17.9577 219.246C-24.9225 217.482 -25.621 211.613 -33.9828 210.437C-36.7718 241.553 -36.0733 289.698 -35.3748 324.342C-29.8019 325.517 -27.013 328.452 -22.8371 329.04C-14.4753 329.628 -17.2643 333.739 -13.7818 337.261C-8.20899 339.608 -5.42508 331.975 0.846279 335.502C3.6302 343.724 -2.63614 343.724 -5.42508 346.658C0.846272 357.814 5.02718 341.96 8.50959 346.658C9.90155 349.593 8.50959 354.879 8.50959 358.99C13.384 358.99 16.1729 352.533 18.9568 356.055C23.1377 360.754 14.0825 367.799 16.8664 373.08C21.0473 376.015 23.1377 367.794 29.4041 371.321C34.9769 374.256 31.4945 380.713 31.4945 386C35.6754 391.286 45.4292 394.221 48.2131 398.914C50.3035 403.025 49.605 407.723 51.6955 410.658C53.7859 413.005 57.9668 414.181 62.1477 415.945C65.6301 417.708 68.4191 419.467 70.5096 421.814L81.6553 431.206C87.2281 435.904 220.288 430.03 237.007 430.03C243.972 430.03 253.032 426.507 257.208 431.206C259.997 433.553 259.997 435.904 263.479 437.075C266.962 437.663 270.444 438.251 273.932 438.839C280.203 440.603 289.258 438.251 292.741 434.141C296.223 430.618 300.404 423.573 308.766 429.442L320.61 442.945C326.881 452.924 320.61 450.578 333.148 455.864C340.112 458.211 347.082 457.04 351.258 462.321C358.921 474.653 346.384 473.477 342.203 474.065C341.504 476.412 340.112 482.874 342.203 484.633C347.077 489.331 352.655 479.347 354.741 477C358.223 472.301 364.494 472.301 371.459 472.301C377.73 472.301 379.821 467.015 386.087 465.844C395.142 464.08 404.203 470.543 410.469 459.975C412.56 455.864 409.077 455.276 410.469 450.583C413.258 442.362 418.132 435.316 424.404 430.618C434.856 422.397 434.158 418.286 446.002 418.286C458.539 418.286 467.6 425.331 478.047 416.522C481.529 414.176 485.012 407.131 488.494 406.543C491.283 405.367 493.369 407.718 496.856 406.543C499.645 405.955 501.037 403.608 503.821 402.432C500.338 396.563 499.64 400.668 503.122 393.04C498.248 391.864 494.76 387.754 491.278 387.754C487.097 387.166 482.223 391.864 478.042 387.166C478.042 383.643 479.434 382.467 481.524 380.708C483.615 380.12 487.796 380.12 489.886 378.945C488.494 377.769 477.348 371.899 474.56 370.136C471.771 368.372 470.379 366.613 466.896 364.849C463.414 363.09 460.625 363.673 460.625 358.98C463.409 356.045 464.806 357.804 468.987 356.045C468.288 351.347 455.751 336.668 453.66 332.558C452.268 330.794 452.268 329.623 451.57 327.859C450.871 324.925 450.871 324.337 449.479 323.161C445.997 324.925 445.997 333.729 442.514 336.663C440.424 339.01 434.153 343.708 429.977 343.12C425.102 343.12 425.796 341.357 423.705 339.01C422.313 337.246 419.524 336.663 418.132 334.899C413.952 329.613 419.524 318.457 414.65 317.286C409.077 315.523 408.379 317.874 403.504 312C401.414 309.653 397.233 303.191 394.449 302.02C392.359 300.844 382.605 300.844 378.424 300.261C372.851 299.085 367.977 297.914 363.097 300.849C365.188 305.548 372.153 307.894 368.67 319.05C367.972 320.226 367.278 321.397 367.278 323.161C366.58 325.507 367.278 326.683 366.58 329.03C365.188 332.553 362.399 333.729 362.399 336.663C364.489 340.186 369.364 341.362 372.851 344.884C378.424 351.342 375.64 352.517 374.941 360.151C374.243 367.784 371.459 368.372 367.278 371.894C360.313 377.764 358.916 375.417 354.741 378.352C354.741 384.221 357.529 379.528 358.223 388.919C358.223 397.141 365.886 400.663 358.223 409.467C356.132 411.814 354.741 415.337 351.258 415.337C348.469 414.161 338.022 401.246 336.63 398.311C333.841 393.03 334.54 390.09 334.54 383.045C334.54 373.653 332.449 375.412 325.484 375.412C315.73 375.412 317.122 375.412 310.856 371.301C306.675 367.779 301.801 367.191 298.318 363.668C296.228 361.909 296.228 360.146 293.444 358.97C291.354 357.794 287.871 357.206 285.781 356.623C282.997 355.447 281.6 353.688 278.816 354.276C275.334 355.452 276.027 357.799 271.153 356.623C269.062 350.166 271.851 343.12 265.58 340.181C259.308 337.246 255.826 338.417 255.826 327.266C255.826 313.764 257.218 311.412 262.791 303.779C265.58 300.256 266.972 297.322 269.062 294.387C271.851 292.04 274.635 289.688 277.424 287.93C274.64 285.583 271.153 284.995 268.369 282.643C264.886 279.708 264.188 275.598 270.459 275.598C276.731 275.01 282.303 280.884 283.695 280.296C285.786 279.121 287.178 276.774 288.57 273.839C290.66 273.839 297.625 277.362 302.504 265.03C300.414 265.03 285.087 265.618 289.268 253.874C293.449 252.698 303.896 261.507 308.077 256.809C310.168 253.874 308.077 249.176 312.258 248.588C316.439 248 318.53 250.347 321.313 250.935C323.404 248 322.012 240.955 326.886 243.301C327.585 243.889 328.278 245.065 329.675 246.236C331.766 248 333.856 245.648 335.248 243.889C342.911 236.256 335.947 236.256 335.947 229.211C335.947 222.754 342.911 220.99 335.248 215.121C330.374 212.186 328.283 209.251 319.921 211.01C319.921 214.533 323.404 214.533 321.313 218.643C319.921 220.99 317.831 222.754 315.741 224.513C312.957 228.623 313.65 235.668 308.776 238.603C304.595 242.126 296.238 238.015 296.932 232.146C297.63 228.623 299.022 228.035 298.323 223.925C292.751 207.482 289.962 226.859 287.178 228.035C280.906 228.035 282.303 221.578 281.605 216.291C280.906 211.005 276.731 212.181 272.55 208.658V201.613C271.158 200.437 269.067 199.266 267.675 197.503C266.283 194.568 266.977 193.392 266.283 190.457C264.891 188.111 263.494 188.693 261.409 186.935C259.318 186.347 257.927 185.171 255.836 184C254.444 185.764 255.138 188.111 252.354 191.045C250.962 193.392 248.871 193.98 249.57 198.09C249.57 208.07 256.535 203.377 260.715 207.482C262.806 209.246 262.806 212.181 263.504 215.116C265.595 220.985 273.957 225.683 255.143 232.141L255.133 232.181Z" fill="#4B4C54"/>
<path fill-rule="evenodd" clip-rule="evenodd" d="M238.409 620.276C237.017 609.12 239.801 607.361 246.072 602.663C255.826 596.206 260.007 589.16 269.756 593.271C273.937 594.447 276.027 593.271 278.811 595.035C282.293 596.799 283.685 596.799 285.776 593.271L291.349 585.05C296.223 583.286 308.067 586.226 311.55 589.16C312.941 590.336 316.424 595.03 318.514 593.859C321.303 592.683 321.303 589.16 327.57 593.271C329.66 595.618 331.751 597.969 333.142 600.316C337.323 607.949 331.751 609.708 342.896 623.804C344.288 624.98 344.987 626.738 347.077 626.15C348.469 616.171 342.896 607.361 341.504 602.08C340.112 597.969 338.022 589.748 338.022 585.055C338.72 580.356 339.414 580.356 341.504 578.01C346.379 570.377 342.896 573.311 350.56 566.854C356.831 561.568 365.886 554.522 370.761 547.477C377.032 538.085 370.062 536.909 370.062 523.407C370.062 519.296 370.062 516.949 372.152 515.186C375.635 515.774 376.333 520.472 377.725 523.407C379.816 521.643 379.117 521.06 380.514 519.296C381.213 518.12 383.303 516.361 383.997 515.186C390.268 507.552 382.605 499.331 401.414 496.985C411.168 495.809 404.896 490.527 408.379 482.894C409.077 480.547 413.253 477.025 415.343 475.261C422.308 467.628 420.916 477.608 429.278 470.563C430.67 469.387 431.369 468.799 432.76 467.04C425.796 466.452 425.796 464.105 426.489 456.472C427.188 449.427 425.097 446.492 420.916 444.728C411.861 453.537 413.253 448.251 413.952 456.472C413.952 461.759 408.379 467.04 404.896 468.804C395.841 472.914 390.268 464.105 379.816 472.326C375.635 475.261 377.032 473.502 375.635 478.196C372.153 487.588 366.58 485.241 362.399 485.829C354.736 486.417 356.127 491.698 351.952 495.809C349.163 498.156 341.499 502.266 338.017 502.854C333.143 503.442 333.143 501.09 331.052 499.919C327.57 497.573 327.57 498.743 324.781 495.809C324.781 486.417 334.534 493.462 331.746 481.13C329.655 479.954 326.173 479.954 324.781 477.02C324.082 474.085 328.962 459.995 316.419 471.733C308.057 479.367 312.238 488.758 308.057 492.869C305.967 495.216 301.786 497.568 299.002 496.392C296.911 491.693 299.002 474.08 300.394 468.211C302.484 457.055 315.022 461.166 317.811 456.467C315.022 454.703 310.846 454.12 306.665 453.532C302.484 453.532 296.911 451.186 294.821 451.769C290.64 452.357 289.947 455.291 284.369 455.291C266.258 455.879 271.831 446.482 276.007 442.96C273.223 441.784 262.072 440.025 259.987 438.849C254.414 434.738 259.288 430.628 246.052 432.392L127.625 436.502L83.7356 435.914C84.4341 440.613 84.4341 445.306 81.6452 448.246C76.7708 450.593 73.2834 425.346 47.5095 421.236C48.9015 422.412 48.208 421.824 49.6 423C50.0656 423.392 50.7624 423.784 51.6904 424.176C59.3537 430.045 69.1075 438.854 72.5899 448.834C76.7708 460.578 67.017 468.794 71.1979 496.98C72.5899 504.025 72.5899 515.181 74.6803 520.467L85.1276 536.904C87.218 541.603 92.0924 550.995 94.8813 553.929C103.243 562.738 112.992 557.452 114.389 566.844V570.367C114.855 572.323 119.034 572.715 126.927 571.542C139.464 569.779 151.308 580.351 154.791 580.934C176.389 583.869 174.298 570.367 186.836 577.412C195.198 581.522 195.891 602.07 206.344 595.025C209.133 593.849 209.826 589.155 214.007 590.914C216.796 592.673 221.67 603.829 223.761 607.351C225.851 610.286 227.942 612.05 230.032 614.397C232.122 617.919 232.821 620.266 238.394 620.266L238.409 620.276Z" fill="#88888E"/>
<path fill-rule="evenodd" clip-rule="evenodd" d="M116.5 575.653C118.59 578 120.68 580.939 121.374 585.045C122.766 591.502 122.766 592.09 126.248 595.613C141.575 607.944 133.213 605.593 133.912 614.99C140.183 619.1 146.449 619.688 148.54 629.08C149.932 637.301 149.932 633.191 154.811 637.301C157.6 639.648 158.293 642 162.474 643.758C160.384 635.537 149.937 622.035 144.364 616.166C140.183 610.879 140.183 605.598 137.399 600.311C135.309 596.789 127.645 592.09 129.736 584.457C131.826 579.171 141.58 580.346 143.67 586.804C147.153 596.196 144.369 596.784 150.635 603.246C154.816 607.356 158.298 609.703 162.479 614.402C165.962 619.1 163.871 622.035 170.841 629.08C176.414 634.367 189.65 646.105 191.741 653.15C194.53 660.784 188.258 666.07 193.831 672.527C195.922 675.462 202.193 680.748 206.369 681.919C212.64 684.854 216.821 684.854 221.695 689.552C228.66 696.01 227.967 693.075 237.022 696.01C246.077 698.944 245.384 698.356 255.133 697.769C262.796 696.593 266.977 700.703 270.459 704.226C273.942 701.291 278.821 700.115 278.821 693.658C280.213 676.045 300.419 693.658 299.72 675.457C299.022 665.477 300.419 665.477 303.901 660.191C299.027 659.015 290.665 659.603 287.183 662.537C281.61 667.236 284.394 671.929 281.61 678.392C277.429 687.784 275.339 678.392 269.766 680.738C265.585 682.502 260.71 688.371 256.53 684.849C254.439 683.673 253.741 681.914 251.655 680.15C243.293 672.517 248.866 671.929 243.992 666.648C241.901 664.301 241.203 663.713 239.117 660.779C232.153 650.211 238.419 637.291 238.419 623.201C230.756 623.789 230.057 619.678 223.092 610.869C219.61 606.171 216.128 596.779 211.947 593.844C209.158 596.191 207.072 600.301 200.801 599.13C191.746 597.367 192.439 582.105 184.776 579.753C172.932 575.643 181.293 585.04 157.605 583.864C145.761 583.864 145.067 570.949 116.505 575.643L116.5 575.653Z" fill="#4B4C54"/>
<path fill-rule="evenodd" clip-rule="evenodd" d="M323.399 648.462C325.489 646.115 336.635 643.181 341.514 643.181C344.997 643.769 346.389 645.527 349.178 646.703C352.66 648.462 354.052 648.462 357.539 649.05C360.323 650.226 362.414 651.985 364.504 653.748C367.987 656.095 369.379 655.507 372.168 657.271C379.831 661.382 384.705 663.14 384.012 668.427C380.529 671.362 370.077 671.362 365.203 669.015C362.419 667.251 361.72 665.492 358.931 663.145C350.575 656.688 350.575 657.859 343.605 656.1C339.424 655.512 339.424 652.578 335.941 652.578C332.459 651.99 331.761 654.924 327.585 654.336C324.796 653.748 321.313 651.99 323.404 648.467L323.399 648.462ZM393.76 674.884C388.881 676.648 384.007 676.648 384.007 683.105C387.489 686.04 397.243 686.04 403.514 685.452C406.997 685.452 408.389 683.693 411.876 683.105C416.755 681.929 416.755 683.105 420.238 680.171C421.63 671.949 412.575 673.713 407.002 670.779C394.459 664.909 395.856 667.256 393.765 674.889L393.76 674.884Z" fill="#4B4C54"/>
<path d="M379.65 661V654H381.27L383.83 657.97C383.883 658.057 383.94 658.157 384 658.27C384.067 658.383 384.11 658.467 384.13 658.52V654H385.71V661H384.09L381.53 657C381.477 656.913 381.417 656.813 381.35 656.7C381.29 656.587 381.25 656.503 381.23 656.45V661H379.65ZM390.395 661.14C389.861 661.14 389.368 661.047 388.915 660.86C388.468 660.673 388.078 660.413 387.745 660.08C387.418 659.747 387.165 659.36 386.985 658.92C386.805 658.48 386.715 658.007 386.715 657.5C386.715 656.993 386.805 656.52 386.985 656.08C387.165 655.64 387.418 655.253 387.745 654.92C388.078 654.587 388.468 654.327 388.915 654.14C389.368 653.953 389.861 653.86 390.395 653.86C390.928 653.86 391.418 653.953 391.865 654.14C392.318 654.327 392.708 654.587 393.035 654.92C393.368 655.253 393.625 655.64 393.805 656.08C393.985 656.52 394.075 656.993 394.075 657.5C394.075 658.007 393.985 658.48 393.805 658.92C393.625 659.36 393.368 659.747 393.035 660.08C392.708 660.413 392.318 660.673 391.865 660.86C391.418 661.047 390.928 661.14 390.395 661.14ZM390.395 659.64C390.775 659.64 391.118 659.557 391.425 659.39C391.738 659.217 391.988 658.97 392.175 658.65C392.361 658.33 392.455 657.947 392.455 657.5C392.455 657.053 392.361 656.67 392.175 656.35C391.988 656.03 391.738 655.787 391.425 655.62C391.118 655.447 390.775 655.36 390.395 655.36C390.021 655.36 389.678 655.447 389.365 655.62C389.051 655.787 388.801 656.03 388.615 656.35C388.428 656.67 388.335 657.053 388.335 657.5C388.335 657.947 388.428 658.33 388.615 658.65C388.801 658.97 389.051 659.217 389.365 659.39C389.678 659.557 390.021 659.64 390.395 659.64ZM395.08 661V654H398.13C398.69 654 399.163 654.08 399.55 654.24C399.943 654.4 400.24 654.633 400.44 654.94C400.646 655.247 400.75 655.62 400.75 656.06C400.75 656.447 400.653 656.807 400.46 657.14C400.273 657.473 399.986 657.74 399.6 657.94C399.213 658.14 398.723 658.24 398.13 658.24H396.7V661H395.08ZM399.13 661L397.49 658.1L399.15 657.96L400.87 661H399.13ZM396.7 656.92H398.29C398.603 656.92 398.83 656.847 398.97 656.7C399.11 656.547 399.18 656.353 399.18 656.12C399.18 655.887 399.11 655.697 398.97 655.55C398.83 655.397 398.603 655.32 398.29 655.32H396.7V656.92ZM403.368 661V655.42H401.298V654H407.058V655.42H404.988V661H403.368ZM407.843 661V654H409.463V656.68H412.163V654H413.783V661H412.163V658.18H409.463V661H407.843ZM417.243 661L420.093 654H421.613L424.463 661H422.703L421.143 656.79C421.09 656.637 421.04 656.497 420.993 656.37C420.947 656.243 420.91 656.143 420.883 656.07C420.863 655.997 420.853 655.96 420.853 655.96C420.853 655.96 420.84 655.997 420.813 656.07C420.793 656.143 420.76 656.243 420.713 656.37C420.673 656.497 420.623 656.637 420.563 656.79L419.003 661H417.243ZM419.533 659.16L419.923 658.08H421.783L422.173 659.16H419.533ZM424.992 661V654H426.742L428.812 659.11L430.882 654H432.632V661H431.052V657.17C431.038 657.23 431.008 657.33 430.962 657.47C430.922 657.61 430.878 657.753 430.832 657.9C430.785 658.04 430.745 658.147 430.712 658.22L429.542 661H428.082L426.912 658.22C426.885 658.147 426.845 658.04 426.792 657.9C426.745 657.753 426.698 657.61 426.652 657.47C426.612 657.33 426.585 657.23 426.572 657.17V661H424.992ZM433.927 661V654H439.037V655.42H435.547V656.69H438.757V658.07H435.547V659.58H439.067V661H433.927ZM440.07 661V654H443.12C443.68 654 444.153 654.08 444.54 654.24C444.933 654.4 445.23 654.633 445.43 654.94C445.637 655.247 445.74 655.62 445.74 656.06C445.74 656.447 445.643 656.807 445.45 657.14C445.263 657.473 444.977 657.74 444.59 657.94C444.203 658.14 443.713 658.24 443.12 658.24H441.69V661H440.07ZM444.12 661L442.48 658.1L444.14 657.96L445.86 661H444.12ZM441.69 656.92H443.28C443.593 656.92 443.82 656.847 443.96 656.7C444.1 656.547 444.17 656.353 444.17 656.12C444.17 655.887 444.1 655.697 443.96 655.55C443.82 655.397 443.593 655.32 443.28 655.32H441.69V656.92ZM446.652 661V654H448.272V661H446.652ZM452.913 661.14C452.387 661.14 451.9 661.053 451.453 660.88C451.007 660.707 450.62 660.46 450.293 660.14C449.973 659.82 449.723 659.437 449.543 658.99C449.363 658.543 449.273 658.047 449.273 657.5C449.273 656.953 449.367 656.457 449.553 656.01C449.74 655.563 450 655.18 450.333 654.86C450.667 654.54 451.057 654.293 451.503 654.12C451.95 653.947 452.433 653.86 452.953 653.86C453.467 653.86 453.93 653.94 454.343 654.1C454.757 654.26 455.11 654.48 455.403 654.76C455.703 655.033 455.93 655.347 456.083 655.7L454.733 656.64C454.547 656.233 454.297 655.92 453.983 655.7C453.677 655.473 453.317 655.36 452.903 655.36C452.63 655.36 452.37 655.41 452.123 655.51C451.883 655.61 451.67 655.753 451.483 655.94C451.303 656.12 451.16 656.343 451.053 656.61C450.947 656.87 450.893 657.167 450.893 657.5C450.893 657.927 450.983 658.3 451.163 658.62C451.35 658.94 451.597 659.19 451.903 659.37C452.21 659.55 452.547 659.64 452.913 659.64C453.367 659.64 453.743 659.527 454.043 659.3C454.343 659.067 454.607 658.737 454.833 658.31L456.143 659.25C455.877 659.677 455.59 660.03 455.283 660.31C454.977 660.583 454.63 660.79 454.243 660.93C453.863 661.07 453.42 661.14 452.913 661.14ZM456.364 661L459.214 654H460.734L463.584 661H461.824L460.264 656.79C460.211 656.637 460.161 656.497 460.114 656.37C460.068 656.243 460.031 656.143 460.004 656.07C459.984 655.997 459.974 655.96 459.974 655.96C459.974 655.96 459.961 655.997 459.934 656.07C459.914 656.143 459.881 656.243 459.834 656.37C459.794 656.497 459.744 656.637 459.684 656.79L458.124 661H456.364ZM458.654 659.16L459.044 658.08H460.904L461.294 659.16H458.654Z" fill="white"/>
</g>
<rect x="35.9338" y="333.886" width="446.23" height="349.114" stroke="#88888E" stroke-width="2"/>
</g>
<defs>
<clipPath id="clip0_22_378">
<rect width="1059" height="682" fill="white"/>
</clipPath>
<clipPath id="clip1_22_378">
<rect x="34" y="31" width="449.164" height="289.482" fill="white"/>
</clipPath>
<clipPath id="clip2_22_378">
<rect x="34.9338" y="332.886" width="448.23" height="351.114" fill="white"/>
</clipPath>
</defs>
</svg>
