<svg width="1402" height="623" viewBox="0 0 1402 623" fill="none" xmlns="http://www.w3.org/2000/svg">
<path d="M546 0.798889V413.257L754.498 622L1716 622L1716 0.798889L546 0.798889Z" stroke="#707077" stroke-linejoin="round"/>
<path d="M568 380.327C568 390.933 572.213 401.106 579.712 408.607L752.337 581.28C759.839 588.784 770.014 593 780.625 593L1674 593C1685.05 593 1694 584.046 1694 573L1694 50C1694 38.9543 1685.05 30 1674 30L588 29.9999C576.954 29.9999 568 38.9542 568 49.9999L568 380.327Z" fill="#F0A93C"/>
<path d="M546 1.00007L202.465 1.00001C91.1966 1.00001 1 93.4505 1 207.5C0.999995 321.549 91.1966 414 202.465 414L546 414V1.00007Z" stroke="#707077" stroke-linejoin="round"/>
<rect x="542" y="130" width="7" height="136.25" fill="#30303A"/>
</svg>
